<svg xmlns="http://www.w3.org/2000/svg" xmlns:xlink="http://www.w3.org/1999/xlink" width="300" zoomAndPan="magnify" viewBox="0 0 224.87999 112.499997" height="150" preserveAspectRatio="xMidYMid meet"><path fill="#050505" d="M 212.445312 18.523438 C 212.175781 18.824219 210.339844 23.0625 206.695312 31.804688 L 206.355469 32.621094 L 205.714844 31.980469 C 203.675781 29.941406 200 30.828125 196.691406 34.160156 C 193.746094 37.125 191.417969 41.203125 189.710938 46.386719 C 189.230469 47.851562 188.519531 49.542969 188.132812 50.144531 C 187.226562 51.554688 186.074219 52.570312 185.480469 52.488281 C 184.5 52.347656 185.015625 50.601562 188.1875 43.359375 C 190.703125 37.605469 190.855469 34.929688 188.738281 33.484375 C 188.214844 33.128906 187.738281 33.007812 186.847656 33.011719 C 184.394531 33.019531 182.59375 34.390625 178.605469 39.269531 L 177.914062 40.117188 L 178.628906 38.628906 C 179.847656 36.097656 179.933594 35.742188 179.519531 34.941406 C 178.855469 33.65625 176.105469 32.925781 175.296875 33.820312 C 175.101562 34.03125 174.945312 34.300781 174.945312 34.410156 C 174.945312 34.988281 170.316406 46.550781 169.390625 48.285156 C 167.371094 52.074219 164.953125 55.074219 163.917969 55.074219 C 162.539062 55.074219 163.558594 51.78125 167.96875 41.996094 C 169.238281 39.179688 170.277344 36.734375 170.277344 36.566406 C 170.277344 35.855469 168.589844 34.929688 166.996094 34.765625 C 166.03125 34.667969 165.828125 34.714844 165.433594 35.136719 C 165.183594 35.402344 164.875 35.941406 164.75 36.328125 L 164.515625 37.035156 L 163.957031 36.371094 C 161.25 33.152344 155.578125 35.605469 151.390625 41.8125 C 149.113281 45.1875 146.867188 50.5 146.285156 53.878906 C 145.277344 59.726562 148.203125 62.898438 152.660156 60.789062 C 153.695312 60.300781 154.523438 59.644531 155.988281 58.164062 L 157.941406 56.191406 L 158.085938 57.066406 C 158.558594 59.910156 160.613281 61.089844 163.039062 59.914062 C 163.570312 59.65625 164.699219 58.765625 165.546875 57.929688 C 167.050781 56.449219 167.09375 56.425781 167.09375 57.027344 C 167.09375 57.371094 167.195312 57.839844 167.324219 58.078125 C 167.785156 58.945312 170.28125 59.648438 171.082031 59.136719 C 171.234375 59.039062 171.839844 57.679688 172.421875 56.117188 C 174.632812 50.179688 177.097656 45.804688 180.496094 41.78125 C 182.128906 39.847656 183.191406 38.949219 183.84375 38.949219 C 184.71875 38.949219 184.375 40.1875 181.984375 45.664062 C 179.300781 51.808594 178.734375 53.828125 179.175781 55.652344 C 179.609375 57.429688 180.675781 58.304688 182.390625 58.289062 C 184.015625 58.277344 185.566406 57.429688 187.410156 55.542969 C 188.339844 54.59375 188.949219 54.109375 188.949219 54.320312 C 188.949219 55.035156 189.835938 56.367188 190.6875 56.929688 C 191.902344 57.734375 193.683594 57.738281 195.207031 56.9375 C 196.472656 56.277344 198.199219 54.65625 199.746094 52.6875 C 200.363281 51.898438 200.886719 51.257812 200.902344 51.257812 C 200.921875 51.257812 200.957031 51.742188 200.976562 52.335938 C 201.066406 54.75 202.804688 56.652344 204.925781 56.652344 C 206.65625 56.648438 207.847656 55.949219 210.285156 53.503906 C 211.722656 52.058594 212.992188 50.5 214.179688 48.71875 C 215.84375 46.226562 215.9375 46.023438 215.839844 45.15625 C 215.734375 44.210938 215.207031 43.402344 214.695312 43.402344 C 214.539062 43.402344 213.582031 44.527344 212.566406 45.898438 C 210.378906 48.863281 208.6875 50.691406 207.792969 51.058594 C 207.214844 51.300781 207.105469 51.285156 206.832031 50.921875 C 205.976562 49.78125 207.351562 45.542969 213.898438 29.164062 C 215.695312 24.65625 217.171875 20.734375 217.171875 20.449219 C 217.171875 18.933594 213.445312 17.417969 212.445312 18.523438 M 104.710938 21.453125 C 100.355469 22.386719 94.925781 25.476562 91.96875 28.703125 C 90.488281 30.316406 89.121094 32.449219 88.429688 34.222656 C 87.96875 35.402344 87.867188 36.019531 87.855469 37.675781 C 87.839844 39.464844 87.90625 39.839844 88.449219 41.011719 C 89.417969 43.105469 91.144531 44.535156 93.640625 45.316406 L 94.773438 45.667969 L 93.214844 46.585938 C 88.742188 49.226562 86.0625 52.007812 83.84375 56.300781 C 82.789062 58.34375 81.703125 59.511719 78.90625 61.609375 C 76.640625 63.308594 74.585938 64.269531 73.011719 64.371094 C 71.824219 64.445312 71.625 64.398438 71.015625 63.886719 C 70.242188 63.234375 69.84375 62.132812 69.945312 60.910156 L 70.015625 60.0625 L 71.5 59.925781 C 73.496094 59.746094 74.628906 59.421875 76.300781 58.542969 C 78.835938 57.21875 81.5625 54.59375 82.988281 52.101562 C 84.230469 49.933594 84.484375 47.257812 83.625 45.410156 C 82.667969 43.359375 80.910156 42.433594 78.285156 42.601562 C 72.738281 42.957031 66.980469 49.761719 64.628906 58.742188 C 64.132812 60.636719 63.171875 62.210938 61.625 63.65625 C 60.804688 64.421875 60.429688 64.636719 59.984375 64.582031 C 58.800781 64.449219 59.195312 62.960938 62.140625 56.5 C 64.355469 51.648438 64.796875 50.457031 64.957031 48.902344 C 65.195312 46.652344 64.160156 44.972656 62.21875 44.449219 C 59.632812 43.753906 56.4375 45.730469 52.914062 50.207031 C 52.183594 51.132812 51.5625 51.890625 51.539062 51.890625 C 51.511719 51.890625 51.914062 50.949219 52.433594 49.800781 C 53.441406 47.550781 53.453125 47.117188 52.546875 46.300781 C 51.601562 45.449219 49.207031 45.011719 48.714844 45.601562 C 48.441406 45.929688 41.816406 63.835938 40.84375 66.875 C 40.167969 68.984375 40.0625 69.90625 40.421875 70.578125 C 40.929688 71.527344 44.078125 72.460938 44.578125 71.808594 C 44.699219 71.648438 45.253906 70.277344 45.8125 68.761719 C 47.160156 65.105469 48.933594 61.1875 50.085938 59.3125 C 52.605469 55.226562 57.214844 49.980469 58.289062 49.980469 C 58.585938 49.980469 58.886719 50.132812 58.957031 50.316406 C 59.140625 50.792969 58.3125 53.128906 56.484375 57.304688 C 54.1875 62.542969 53.757812 63.824219 53.640625 65.789062 C 53.550781 67.273438 53.601562 67.605469 54.03125 68.429688 C 54.761719 69.828125 55.457031 70.246094 57.035156 70.246094 C 59.191406 70.246094 61.210938 68.929688 63.765625 65.863281 L 64.765625 64.664062 L 65.261719 65.726562 C 65.878906 67.046875 67.472656 68.507812 68.78125 68.953125 C 71.863281 70.003906 76.382812 68.671875 80.160156 65.605469 C 80.765625 65.113281 81.367188 64.644531 81.496094 64.566406 C 81.648438 64.472656 81.898438 65.050781 82.207031 66.21875 C 83.484375 71.058594 87.125 73.574219 92.402344 73.257812 C 96.230469 73.027344 99.609375 71.648438 103.648438 68.675781 C 105.574219 67.257812 110.394531 62.488281 112.613281 59.804688 L 114.230469 57.851562 L 114.472656 59.0625 C 115.046875 61.933594 115.511719 63.082031 116.464844 63.96875 C 117.429688 64.871094 120.207031 64.785156 121.3125 63.820312 C 121.804688 63.394531 121.78125 62.671875 121.257812 61.816406 C 120.722656 60.949219 120.136719 58.996094 119.574219 56.207031 C 118.980469 53.277344 119.003906 52.867188 119.824219 51.816406 C 122.09375 48.902344 127.214844 42.535156 128.09375 41.53125 C 129.242188 40.214844 129.3125 39.75 128.4375 39.101562 C 127.726562 38.570312 125.960938 38.109375 125.398438 38.304688 C 124.898438 38.476562 121.949219 42.082031 119.738281 45.21875 C 118.882812 46.433594 118.128906 47.425781 118.0625 47.429688 C 117.992188 47.433594 117.730469 45.835938 117.480469 43.882812 C 117.066406 40.636719 116.980469 40.285156 116.488281 39.859375 C 115.933594 39.375 114.71875 38.953125 113.878906 38.949219 C 113.230469 38.949219 112.097656 39.4375 111.734375 39.875 C 111.390625 40.289062 111.519531 41.425781 112.675781 48.382812 L 113.378906 52.617188 L 111.855469 54.429688 C 109.441406 57.304688 105.152344 61.453125 102.65625 63.339844 C 99.246094 65.910156 95.117188 67.808594 92.941406 67.804688 C 91.164062 67.800781 89.503906 66.863281 88.789062 65.460938 C 88.175781 64.261719 88.078125 63.039062 88.445312 61.285156 C 89.566406 55.980469 94.21875 51.121094 102.238281 46.894531 C 104.839844 45.519531 105.34375 44.953125 105.34375 43.390625 C 105.347656 41.632812 105.273438 41.601562 101.066406 41.601562 C 97.6875 41.601562 97.316406 41.5625 96.519531 41.136719 C 94.0625 39.820312 93.492188 37.613281 94.894531 34.808594 C 95.605469 33.386719 98.679688 30.378906 100.722656 29.109375 C 104.632812 26.679688 108.539062 25.789062 109.695312 27.0625 C 110.371094 27.8125 110.03125 29.277344 108.410156 32.59375 L 106.957031 35.5625 L 107.429688 36.035156 C 107.84375 36.449219 108.125 36.507812 109.6875 36.507812 C 111.371094 36.507812 111.507812 36.472656 112.121094 35.886719 C 112.929688 35.113281 114.488281 32.109375 115.105469 30.140625 C 116.453125 25.824219 114.753906 22.53125 110.601562 21.425781 C 109.199219 21.054688 106.515625 21.066406 104.710938 21.453125 M 29.277344 26.65625 C 22.398438 27.804688 16 33.601562 11.660156 42.617188 C 6.492188 53.355469 5.640625 64.914062 9.476562 72.3125 C 10.992188 75.238281 13.957031 77.46875 17.300781 78.207031 C 19.308594 78.648438 22.585938 78.398438 24.753906 77.636719 C 29.105469 76.109375 33.515625 72.207031 37.097656 66.714844 C 39.699219 62.722656 42.316406 56.574219 43.578125 51.503906 C 44.589844 47.441406 44.761719 46.078125 44.753906 42.238281 C 44.742188 38.039062 44.328125 35.898438 43.007812 33.21875 C 40.601562 28.335938 35.066406 25.6875 29.277344 26.65625 M 28.953125 32.429688 C 28.191406 32.707031 26.996094 33.292969 26.300781 33.738281 C 24.546875 34.851562 21.472656 38.03125 19.867188 40.386719 C 15.792969 46.375 13.175781 55.59375 13.53125 62.707031 C 13.667969 65.414062 14.03125 67.058594 14.925781 68.972656 C 15.71875 70.667969 16.480469 71.53125 17.792969 72.207031 C 19.238281 72.957031 21.472656 72.984375 23.292969 72.277344 C 28.765625 70.148438 33.90625 63.328125 36.976562 54.121094 C 39.523438 46.464844 39.949219 39.425781 38.078125 35.757812 C 37.421875 34.476562 36.226562 33.253906 35.015625 32.632812 C 33.441406 31.824219 30.863281 31.738281 28.953125 32.429688 M 202.796875 36 C 200.351562 37.210938 196.28125 43.542969 194.582031 48.789062 C 193.953125 50.734375 193.914062 51.308594 194.382812 51.777344 C 195.292969 52.6875 197.28125 50.917969 199.980469 46.800781 C 202.039062 43.65625 203.921875 39.660156 204.445312 37.320312 C 204.632812 36.5 204.609375 36.28125 204.308594 35.949219 C 203.863281 35.457031 203.890625 35.457031 202.796875 36 M 141.417969 36.8125 C 140.28125 37.15625 139.34375 37.796875 137.863281 39.226562 C 136.335938 40.707031 136.324219 40.710938 136.324219 40.074219 C 136.324219 39.230469 135.617188 38.355469 134.539062 37.863281 C 133.539062 37.410156 132.230469 37.34375 131.925781 37.726562 C 131.808594 37.875 131.117188 39.808594 130.382812 42.023438 C 128.605469 47.40625 127.027344 51.765625 124.542969 58.152344 C 123.40625 61.070312 121.78125 65.363281 120.933594 67.695312 C 119.492188 71.664062 119.355469 71.941406 118.789062 72.085938 C 118.457031 72.167969 113.789062 72.820312 108.421875 73.539062 C 97.679688 74.96875 86.535156 76.53125 78.964844 77.664062 C 76.257812 78.066406 72.566406 78.597656 70.757812 78.839844 C 63.789062 79.78125 53.054688 81.621094 38.503906 84.378906 C 29.960938 85.996094 29.167969 86.261719 29.167969 87.476562 C 29.167969 88.210938 29.898438 89.523438 30.660156 90.164062 C 31.53125 90.898438 32.359375 90.886719 35.492188 90.101562 C 51.140625 86.183594 77.964844 81.269531 102.058594 77.910156 C 110.019531 76.796875 117.863281 75.882812 117.863281 76.066406 C 117.863281 76.136719 117.285156 77.957031 116.582031 80.117188 C 115.875 82.273438 115.242188 84.46875 115.179688 84.992188 C 115.078125 85.84375 115.132812 86.011719 115.671875 86.523438 C 116.316406 87.136719 117.800781 87.753906 118.628906 87.753906 C 118.914062 87.753906 119.261719 87.546875 119.433594 87.273438 C 119.605469 87.011719 121.859375 80.925781 124.449219 73.746094 C 127.039062 66.570312 129.207031 60.648438 129.269531 60.589844 C 129.332031 60.535156 129.429688 60.628906 129.488281 60.804688 C 129.738281 61.53125 131.367188 62.890625 132.296875 63.140625 C 136.21875 64.199219 140.46875 61.078125 143.988281 54.550781 C 146.71875 49.488281 148.113281 42.621094 147.03125 39.558594 C 146.648438 38.46875 145.621094 37.320312 144.660156 36.90625 C 143.933594 36.59375 142.292969 36.546875 141.417969 36.8125 M 160.078125 40.398438 C 156.996094 42.359375 152.695312 49.148438 151.820312 53.449219 C 151.386719 55.570312 151.921875 56.296875 153.410156 55.589844 C 154.863281 54.898438 158.105469 50.761719 159.71875 47.542969 C 161.101562 44.777344 162.425781 41.542969 162.425781 40.921875 C 162.425781 39.664062 161.542969 39.464844 160.078125 40.398438 M 139.367188 42.316406 C 137.570312 43.617188 135.511719 46.539062 133.445312 50.726562 C 131.222656 55.230469 130.824219 56.832031 131.660156 57.894531 C 132.960938 59.546875 135.390625 58.289062 137.789062 54.726562 C 140.691406 50.414062 142.789062 43.816406 141.761719 42.246094 C 141.285156 41.519531 140.433594 41.542969 139.367188 42.316406 M 77.230469 47.625 C 75.609375 48.640625 73.363281 51.632812 72.058594 54.519531 C 71.691406 55.324219 71.394531 56.007812 71.394531 56.039062 C 71.394531 56.183594 73.710938 55.535156 74.472656 55.175781 C 75.683594 54.609375 77.972656 52.222656 78.773438 50.695312 C 79.488281 49.332031 79.675781 47.949219 79.203125 47.476562 C 78.828125 47.105469 77.957031 47.167969 77.230469 47.625 M 199.242188 63.488281 C 198.773438 63.523438 196.910156 63.65625 195.101562 63.78125 C 179.914062 64.824219 150.835938 67.824219 133.355469 70.148438 C 130.730469 70.5 128.320312 70.835938 128 70.902344 C 127.480469 71.007812 127.359375 71.214844 126.867188 72.828125 C 126.5625 73.820312 126.367188 74.683594 126.433594 74.746094 C 126.496094 74.8125 128.582031 74.613281 131.066406 74.308594 C 137.085938 73.570312 141.757812 73.066406 151.921875 72.054688 C 171.816406 70.074219 182.273438 69.351562 198.277344 68.855469 C 203.078125 68.707031 205.691406 68.546875 205.878906 68.390625 C 206.425781 67.9375 205.859375 66.183594 204.738281 64.851562 C 203.59375 63.492188 202.542969 63.230469 199.242188 63.488281 " fill-opacity="1" fill-rule="evenodd"></path></svg>