<svg xmlns:xlink="http://www.w3.org/1999/xlink" xmlns="http://www.w3.org/2000/svg" width="1000" height="1000" viewBox="0 0 1000 1000"><path d="M 215.858 29.476 C 215.585 29.748, 211.343 30.409, 206.431 30.943 C 186.341 33.129, 173.120 36.621, 151 45.585 C 140.512 49.835, 115.122 64.387, 112 67.937 C 111.725 68.249, 108.808 70.529, 105.518 73.003 C 84.358 88.910, 62.529 115.938, 49.793 142 C 39.282 163.509, 34.147 180.862, 30.707 206.500 C 28.960 219.522, 28.960 780.478, 30.707 793.500 C 34.147 819.138, 39.282 836.491, 49.793 858 C 54.767 868.178, 63.786 882.997, 68.646 888.977 C 69.327 889.815, 72.771 894.100, 76.300 898.500 C 83.585 907.584, 96.669 920.346, 105.518 926.997 C 108.808 929.471, 111.725 931.751, 112 932.063 C 115.339 935.860, 141.722 950.774, 152.938 955.204 C 173.877 963.476, 186.450 966.802, 205 968.978 C 214.817 970.129, 785.183 970.129, 795 968.978 C 807.092 967.560, 820.845 964.629, 831.500 961.201 C 849.755 955.326, 875.888 941.769, 888.977 931.383 C 907.749 916.488, 917.064 907.175, 931.392 888.977 C 936.777 882.139, 946.586 865.721, 951.396 855.500 C 960.566 836.010, 966.606 815.227, 968.978 795 C 970.129 785.183, 970.129 214.817, 968.978 205 C 968.052 197.108, 966.859 190.477, 965.017 183 C 964.407 180.525, 963.529 176.925, 963.065 175 C 962.342 172.001, 958.728 161.857, 955.204 152.938 C 950.540 141.131, 938.730 120.342, 931.392 111.023 C 917.064 92.825, 907.749 83.512, 888.977 68.617 C 875.888 58.231, 849.755 44.674, 831.500 38.799 C 822.053 35.760, 809.281 32.926, 795.500 30.813 C 788.436 29.730, 216.922 28.411, 215.858 29.476 M 213 73.089 C 194.880 74.919, 179.057 79.524, 161 88.223 C 111.912 111.872, 78.495 159.650, 73.029 214 C 71.912 225.103, 71.912 774.897, 73.029 786 C 74.948 805.083, 79.258 820.285, 87.941 838.593 C 111.113 887.456, 159.686 921.509, 214 926.971 C 225.103 928.088, 774.897 928.088, 786 926.971 C 796.515 925.914, 803.237 924.619, 816 921.194 C 817.925 920.677, 822.997 918.848, 827.271 917.129 C 858.300 904.651, 883.400 884.374, 901.704 857 C 909.286 845.659, 917.889 827.162, 921.119 815.250 C 921.603 813.462, 922.488 810.313, 923.083 808.250 C 924.840 802.168, 925.989 795.144, 926.968 784.500 C 928.188 771.231, 928.188 228.769, 926.968 215.500 C 925.073 194.894, 921.096 180.461, 912.059 161.407 C 895.261 125.985, 865.168 98.111, 827.271 82.871 C 822.997 81.152, 817.925 79.323, 816 78.806 C 803.237 75.381, 796.515 74.086, 786 73.029 C 775.538 71.977, 223.439 72.034, 213 73.089 M 171.454 216.260 C 171.188 216.953, 171.090 231.465, 171.235 248.510 L 171.500 279.500 207.500 280 L 243.500 280.500 244 522.500 L 244.500 764.500 279.382 764.763 C 304.293 764.951, 314.655 764.702, 315.632 763.891 C 317.531 762.315, 317.698 218.098, 315.800 216.200 C 314.008 214.408, 172.142 214.467, 171.454 216.260 M 487.452 226.264 C 487.184 226.963, 487.085 239.002, 487.232 253.017 L 487.500 278.500 621.500 278.500 L 755.500 278.500 755.500 252 L 755.500 225.500 621.720 225.246 C 514.263 225.043, 487.844 225.243, 487.452 226.264 M 597.500 341.526 C 596.950 341.775, 593.125 342.399, 589 342.912 C 577.730 344.316, 562.193 347.901, 550.500 351.795 C 508.747 365.701, 474.941 391.946, 451.051 429 C 446.914 435.416, 437.431 453.672, 435.207 459.500 C 434.578 461.150, 433.113 464.975, 431.953 468 C 429.116 475.393, 427.974 478.835, 426.973 483 C 426.511 484.925, 425.643 488.300, 425.044 490.500 C 420.773 506.180, 417.596 533.844, 417.636 555 C 417.703 589.777, 423.740 623.805, 434.136 648 C 441.669 665.529, 452.943 685.460, 460.893 695.300 C 472.864 710.117, 489.682 726.671, 499.500 733.299 C 502.800 735.527, 505.725 737.613, 506 737.934 C 507.762 739.992, 528.267 751.102, 539.285 755.968 C 544.968 758.478, 560.854 763.851, 566.500 765.173 C 583.019 769.040, 588.108 769.770, 608.250 771.167 C 639.743 773.349, 672.035 769.735, 697.749 761.148 C 735.591 748.512, 766.117 725.574, 791.769 690.500 C 793.576 688.029, 800.088 676.914, 803.195 671 C 808.679 660.558, 816.978 638.434, 816.241 636.222 C 815.929 635.288, 806.892 635, 777.885 635 C 742.642 635, 739.894 635.125, 739.331 636.750 C 738.997 637.712, 737.050 642.137, 735.005 646.583 C 721.367 676.226, 695.995 697.445, 664 705.967 C 654.520 708.491, 652.222 708.941, 643 710.076 C 622.791 712.563, 596.098 709.901, 577.500 703.544 C 559.523 697.400, 544.150 687.988, 530.169 674.568 C 513.377 658.449, 502.382 639.863, 496.813 618.184 C 494.247 608.192, 493.783 606.066, 492.960 600.500 C 492.471 597.200, 491.768 591.914, 491.397 588.753 L 490.723 583.006 656.611 582.753 L 822.500 582.500 823.262 575.500 C 824.796 561.411, 825.276 526.727, 824.072 517 C 822.584 504.981, 821.092 495.552, 819.917 490.750 C 815.828 474.033, 814.729 470.534, 809.153 456.500 C 803.517 442.314, 791.881 422.928, 780.874 409.384 C 764.259 388.940, 734.279 366.404, 712 357.612 C 709.525 356.635, 706.150 355.228, 704.500 354.485 C 694.999 350.208, 679.513 346.126, 660.500 342.886 C 654.498 341.864, 599.387 340.674, 597.500 341.526 M 605 402.544 C 590.790 404.417, 588.306 404.949, 578.500 408.220 C 566.379 412.264, 558.174 416.257, 547.902 423.110 C 523.542 439.363, 505.574 464.175, 498.014 492 C 497.342 494.475, 496.389 497.534, 495.896 498.797 C 495.403 500.060, 495 502.453, 495 504.113 C 495 505.773, 494.612 507.889, 494.137 508.816 C 493.662 509.742, 492.984 513.763, 492.630 517.750 L 491.986 525 621.615 525 L 751.245 525 750.630 516.250 C 749.513 500.329, 746.749 486.722, 742.455 476 C 740.147 470.236, 733.498 457.626, 730.679 453.665 C 723.433 443.485, 710.516 430.721, 701 424.339 C 693.680 419.429, 677.303 411, 675.085 411 C 674.473 411, 673.191 410.594, 672.236 410.097 C 670.673 409.285, 668.007 408.475, 658.500 405.925 C 648.903 403.351, 630.321 400.947, 621.500 401.139 C 617.650 401.223, 610.225 401.855, 605 402.544" stroke="none" fill="#040404" fill-rule="evenodd"></path></svg>